# xmcd
#
# Track frame offsets:
#	150
#	14533
#	35750
#	51389
#	69109
#	88466
#	105570
#	120265
#	133833
#	152350
#	167769
#	189952
#
# Disc length: 2713 seconds
#
# Revision: 1
# Processed by: cddbd v1.5.1PL0 Copyright (c) Steve Scherf et al.
# Submitted via: EasyCDDAExtractor 6.5.0.1
#
DISCID=9a0a970c
DTITLE=Alan Jackson - What I Do
DYEAR=2004
DGENRE=Country
TTITLE0=Too Much Of A Good Thing
TTITLE1=Rainy Day In June
TTITLE2=USA Today
TTITLE3=If Love Was A River
TTITLE4=If French Fries Were Fat Free
TTITLE5=You Don't Have To Paint Me A Picture
TTITLE6=There Ya Go
TTITLE7=The Talkin' Song Repair Blues
TTITLE8=Strong Enough
TTITLE9=Monday Morning Church
TTITLE10=Burnin' The Honky Tonks Down
TTITLE11=To Do What I Do (Live)
EXTD=
EXTT0=
EXTT1=
EXTT2=
EXTT3=
EXTT4=
EXTT5=
EXTT6=
EXTT7=
EXTT8=
EXTT9=
EXTT10=
EXTT11=
PLAYORDER=
